<svg width="28" height="34" viewBox="0 0 28 34" fill="none" xmlns="http://www.w3.org/2000/svg">
<path d="M24.6428 32.1782L2.22572 31.8177C1.90064 31.8125 1.59097 31.6761 1.36486 31.4386C1.13876 31.2011 1.01472 30.8819 1.02004 30.5512L1.30984 12.5315C1.3119 12.3594 1.34956 12.1897 1.42036 12.0334C1.49116 11.8771 1.59353 11.7377 1.72079 11.6242L13.0953 1.3194C13.3244 1.11037 13.6225 0.996989 13.9301 1.00194C14.2377 1.00688 14.5321 1.1298 14.7543 1.34608L25.7968 12.0115C25.9193 12.1297 26.0165 12.2725 26.0821 12.4308C26.1478 12.5892 26.1806 12.7596 26.1784 12.9314L25.8886 30.9511C25.8833 31.2818 25.749 31.5969 25.5154 31.827C25.2818 32.0571 24.9679 32.1835 24.6428 32.1782ZM10.694 23.1326L16.4634 23.2253C16.5827 23.228 16.7004 23.2545 16.8096 23.3033C16.9188 23.3522 17.0175 23.4225 17.1 23.5102C17.1825 23.5979 17.2472 23.7012 17.2905 23.8144C17.3337 23.9275 17.3546 24.0482 17.3519 24.1696L17.225 32.0589L9.64348 31.937L9.77036 24.0477C9.77162 23.9258 9.79656 23.8054 9.84373 23.6934C9.8909 23.5813 9.95937 23.4799 10.0452 23.3948C10.1311 23.3098 10.2326 23.2428 10.3439 23.1978C10.4553 23.1528 10.5743 23.1306 10.694 23.1326Z" stroke="#052224" stroke-width="2" stroke-linecap="round" stroke-linejoin="round"/>
</svg>
