<svg width="30" height="30" viewBox="0 0 30 30" fill="none" xmlns="http://www.w3.org/2000/svg">
<rect width="30" height="30" rx="15" fill="#E9FEFF"/>
<path d="M21.3891 20.4892L21.3953 19.8463H21.3891V20.4892ZM22.0853 18.9694L21.5606 19.3409L21.5692 19.353L21.5783 19.3646L22.0853 18.9694ZM20.479 15.0976L21.1122 14.9865L21.1108 14.979L20.479 15.0976ZM19.1011 8.43704L19.6083 8.04199L19.607 8.04035L19.1011 8.43704ZM15.0002 6.40049L15.0017 5.75762L14.9981 5.75764L15.0002 6.40049ZM10.8993 8.43704L10.3938 8.03987L10.3921 8.042L10.8993 8.43704ZM9.52507 15.0976L8.89316 14.9792L8.89188 14.9865L9.52507 15.0976ZM7.91879 18.9694L8.42228 19.3691L8.43324 19.3553L8.44343 19.3409L7.91879 18.9694ZM8.61496 20.4892V19.8462L8.60276 19.8464L8.61496 20.4892ZM14.361 6.4005C14.361 6.75554 14.6488 7.04336 15.0038 7.04336C15.3589 7.04336 15.6467 6.75554 15.6467 6.4005H14.361ZM15.6467 5.14282C15.6467 4.78778 15.3589 4.49997 15.0038 4.49997C14.6488 4.49997 14.361 4.78778 14.361 5.14282H15.6467ZM15.0002 24L15.0016 23.3571H15.0002L15.0002 24ZM21.3828 21.132C21.6804 21.1349 21.9703 21.0487 22.2183 20.8869L21.5156 19.8102C21.477 19.8353 21.4354 19.8467 21.3953 19.8464L21.3828 21.132ZM22.2183 20.8869C22.4659 20.7252 22.6603 20.4959 22.7826 20.2289L21.6137 19.6934C21.5899 19.7454 21.5545 19.7847 21.5156 19.8102L22.2183 20.8869ZM22.7826 20.2289C22.9049 19.9621 22.9513 19.6663 22.9181 19.3753L21.6407 19.5208C21.6475 19.5811 21.6376 19.6413 21.6137 19.6934L22.7826 20.2289ZM22.9181 19.3753C22.885 19.0843 22.7732 18.8061 22.5922 18.5741L21.5783 19.3646C21.611 19.4066 21.6338 19.4605 21.6407 19.5208L22.9181 19.3753ZM22.6099 18.5979C21.855 17.5318 21.342 16.2965 21.1122 14.9865L19.8458 15.2087C20.108 16.7033 20.694 18.117 21.5606 19.3409L22.6099 18.5979ZM21.1108 14.979C21.012 14.4525 20.9697 13.9087 20.9404 13.3384C20.9118 12.7822 20.895 12.1754 20.8438 11.5928C20.7397 10.4079 20.4846 9.16705 19.6083 8.042L18.594 8.83209C19.2478 9.6714 19.4677 10.621 19.563 11.7054C19.6115 12.2574 19.6255 12.805 19.6563 13.4044C19.6864 13.9898 19.732 14.6029 19.8471 15.2162L21.1108 14.979ZM19.607 8.04035C19.0511 7.3314 18.3505 6.75756 17.5541 6.36205L16.9822 7.51358C17.6037 7.82222 18.155 8.27233 18.5953 8.83373L19.607 8.04035ZM17.5541 6.36205C16.7575 5.96647 15.8858 5.75965 15.0017 5.75763L14.9987 7.04335C15.6837 7.04491 16.3609 7.20502 16.9822 7.51358L17.5541 6.36205ZM14.9981 5.75764C14.1143 5.76054 13.2431 5.96774 12.4468 6.36316L13.0187 7.5147C13.6401 7.20608 14.3173 7.0456 15.0023 7.04334L14.9981 5.75764ZM12.4468 6.36316C11.6507 6.75852 10.9502 7.33173 10.3938 8.03987L11.4048 8.83421C11.8456 8.27322 12.3971 7.82338 13.0187 7.5147L12.4468 6.36316ZM10.3921 8.042C9.51566 9.16721 9.2616 10.4073 9.1584 11.5919C9.10767 12.1741 9.09133 12.781 9.06309 13.3372C9.03413 13.9075 8.99203 14.4518 8.8932 14.9792L10.1569 15.216C10.272 14.6017 10.3174 13.9881 10.3471 13.4024C10.3776 12.8026 10.3912 12.2554 10.4393 11.7034C10.5337 10.6197 10.7528 9.67124 11.4065 8.83209L10.3921 8.042ZM8.89188 14.9865C8.66206 16.2965 8.14906 17.5318 7.39414 18.5979L8.44343 19.3409C9.31005 18.117 9.89603 16.7033 10.1583 15.2087L8.89188 14.9865ZM7.41529 18.5697C7.2313 18.8014 7.11707 19.0805 7.08252 19.3729L8.35935 19.5238C8.36644 19.4638 8.38954 19.4103 8.42228 19.3691L7.41529 18.5697ZM7.08252 19.3729C7.04797 19.6653 7.09404 19.9629 7.2169 20.2312L8.38582 19.6957C8.36203 19.6438 8.35226 19.5838 8.35935 19.5238L7.08252 19.3729ZM7.2169 20.2312C7.33984 20.4995 7.53584 20.7299 7.78566 20.8913L8.48347 19.8114C8.44482 19.7865 8.40953 19.7475 8.38582 19.6957L7.2169 20.2312ZM7.78566 20.8913C8.03582 21.053 8.32801 21.1376 8.62715 21.1319L8.60276 19.8464C8.56306 19.8472 8.52177 19.8362 8.48347 19.8114L7.78566 20.8913ZM8.61496 21.132H21.3891V19.8463H8.61496V21.132ZM15.6467 6.4005V5.14282H14.361V6.4005H15.6467ZM16.1921 22.0786C16.1924 22.2507 16.1603 22.4204 16.0982 22.578L17.2943 23.0495C17.4163 22.74 17.4784 22.4094 17.4778 22.0762L16.1921 22.0786ZM16.0982 22.578C16.0361 22.7354 15.9457 22.8766 15.8335 22.9941L16.7637 23.8818C16.9925 23.642 17.1723 23.359 17.2943 23.0495L16.0982 22.578ZM15.8335 22.9941C15.7215 23.1116 15.59 23.203 15.4475 23.2647L15.9583 24.4446C16.2614 24.3134 16.5348 24.1216 16.7637 23.8818L15.8335 22.9941ZM15.4475 23.2647C15.3051 23.3263 15.1537 23.3574 15.0016 23.3571L14.9989 24.6428C15.3289 24.6435 15.655 24.5758 15.9583 24.4446L15.4475 23.2647ZM15.0002 23.3571C14.8483 23.3571 14.697 23.3257 14.5549 23.264L14.0424 24.4431C14.345 24.5747 14.6706 24.6428 15.0002 24.6428L15.0002 23.3571ZM14.5549 23.264C14.4127 23.2021 14.2815 23.1107 14.1697 22.9933L13.2386 23.88C13.467 24.1197 13.7398 24.3116 14.0424 24.4431L14.5549 23.264ZM14.1697 22.9933C14.0578 22.8758 13.9676 22.7347 13.9057 22.5774L12.7093 23.0483C12.831 23.3574 13.0104 23.6403 13.2386 23.88L14.1697 22.9933ZM13.9057 22.5774C13.8437 22.42 13.8117 22.2504 13.812 22.0786L12.5263 22.0762C12.5257 22.4089 12.5876 22.7392 12.7093 23.0483L13.9057 22.5774Z" fill="#093030"/>
</svg>
